HIERARCHY
ROOT Hips
{
	OFFSET 0 0 0
	CHANNELS 6 Xposition Yposition Zposition Yrotation Xrotation Zrotation
	JOINT Spine
	{
		OFFSET -0 8.23869 -2.62608
		CHANNELS 3 Yrotation Xrotation Zrotation
		JOINT Spine1
		{
			OFFSET -0 7.92598 0
			CHANNELS 3 Yrotation Xrotation Zrotation
			JOINT Spine2
			{
				OFFSET -0 7.92598 0
				CHANNELS 3 Yrotation Xrotation Zrotation
				JOINT Spine3
				{
					OFFSET -0 7.92598 0
					CHANNELS 3 Yrotation Xrotation Zrotation
					JOINT Neck
					{
						OFFSET -0 15.3347 3.62608
						CHANNELS 3 Yrotation Xrotation Zrotation
						JOINT Head
						{
							OFFSET -0 10.2984 0
							CHANNELS 3 Yrotation Xrotation Zrotation
							End Site
							{
								OFFSET 0 15 0
							}
						}
					}
					JOINT LeftShoulder
					{
						OFFSET 1.71639 3.24826 3.43279
						CHANNELS 3 Yrotation Xrotation Zrotation
						JOINT LeftArm
						{
							OFFSET 19.515 0 0
							CHANNELS 3 Yrotation Xrotation Zrotation
							JOINT LeftForeArm
							{
								OFFSET 23.117 0 0
								CHANNELS 3 Yrotation Xrotation Zrotation
								JOINT LeftHand
								{
									OFFSET 24.3821 0 0
									CHANNELS 3 Yrotation Xrotation Zrotation
									JOINT LeftHandThumb1
									{
										OFFSET 4.89344 0 2.57866
										CHANNELS 3 Yrotation Xrotation Zrotation
										JOINT LeftHandThumb2
										{
											OFFSET 3 0 1
											CHANNELS 3 Yrotation Xrotation Zrotation
											JOINT LeftHandThumb3
											{
												OFFSET 2.1 0 0
												CHANNELS 3 Yrotation Xrotation Zrotation
												JOINT LeftHandThumb4
												{
													OFFSET 1.305 0 0
													CHANNELS 3 Yrotation Xrotation Zrotation
													End Site
													{
														OFFSET -0 0 0
													}
												}
											}
										}
									}
									JOINT LeftHandIndex1
									{
										OFFSET 9.17063 0 3.39553
										CHANNELS 3 Yrotation Xrotation Zrotation
										JOINT LeftHandIndex2
										{
											OFFSET 3.5 0 0
											CHANNELS 3 Yrotation Xrotation Zrotation
											JOINT LeftHandIndex3
											{
												OFFSET 2.45 0 0
												CHANNELS 3 Yrotation Xrotation Zrotation
												JOINT LeftHandIndex4
												{
													OFFSET 1.5225 0 0
													CHANNELS 3 Yrotation Xrotation Zrotation
													End Site
													{
														OFFSET -0 0 0
													}
												}
											}
										}
									}
									JOINT LeftHandMiddle1
									{
										OFFSET 9.21351 0 0.900721
										CHANNELS 3 Yrotation Xrotation Zrotation
										JOINT LeftHandMiddle2
										{
											OFFSET 4.6 0 0
											CHANNELS 3 Yrotation Xrotation Zrotation
											JOINT LeftHandMiddle3
											{
												OFFSET 3.22 0 0
												CHANNELS 3 Yrotation Xrotation Zrotation
												JOINT LeftHandMiddle4
												{
													OFFSET 2.001 0 0
													CHANNELS 3 Yrotation Xrotation Zrotation
													End Site
													{
														OFFSET -0 0 0
													}
												}
											}
										}
									}
									JOINT LeftHandRing1
									{
										OFFSET 8.95639 0 -1.59409
										CHANNELS 3 Yrotation Xrotation Zrotation
										JOINT LeftHandRing2
										{
											OFFSET 3.75 0 0
											CHANNELS 3 Yrotation Xrotation Zrotation
											JOINT LeftHandRing3
											{
												OFFSET 2.625 0 0
												CHANNELS 3 Yrotation Xrotation Zrotation
												JOINT LeftHandRing4
												{
													OFFSET 1.63125 0 0
													CHANNELS 3 Yrotation Xrotation Zrotation
													End Site
													{
														OFFSET -0 0 0
													}
												}
											}
										}
									}
									JOINT LeftHandPinky1
									{
										OFFSET 8.39928 0 -4.08889
										CHANNELS 3 Yrotation Xrotation Zrotation
										JOINT LeftHandPinky2
										{
											OFFSET 2.875 0 0
											CHANNELS 3 Yrotation Xrotation Zrotation
											JOINT LeftHandPinky3
											{
												OFFSET 2.0125 0 0
												CHANNELS 3 Yrotation Xrotation Zrotation
												JOINT LeftHandPinky4
												{
													OFFSET 1.25062 0 0
													CHANNELS 3 Yrotation Xrotation Zrotation
													End Site
													{
														OFFSET -0 0 0
													}
												}
											}
										}
									}
								}
							}
						}
					}
					JOINT RightShoulder
					{
						OFFSET -1.71639 3.24826 3.43279
						CHANNELS 3 Yrotation Xrotation Zrotation
						JOINT RightArm
						{
							OFFSET -19.515 0 0
							CHANNELS 3 Yrotation Xrotation Zrotation
							JOINT RightForeArm
							{
								OFFSET -23.117 0 0
								CHANNELS 3 Yrotation Xrotation Zrotation
								JOINT RightHand
								{
									OFFSET -24.3821 0 0
									CHANNELS 3 Yrotation Xrotation Zrotation
									JOINT RightHandThumb1
									{
										OFFSET -4.44833 0 2.59928
										CHANNELS 3 Yrotation Xrotation Zrotation
										JOINT RightHandThumb2
										{
											OFFSET -3 0 1
											CHANNELS 3 Yrotation Xrotation Zrotation
											JOINT RightHandThumb3
											{
												OFFSET -2.1 0 0
												CHANNELS 3 Yrotation Xrotation Zrotation
												JOINT RightHandThumb4
												{
													OFFSET -1.305 0 0
													CHANNELS 3 Yrotation Xrotation Zrotation
													End Site
													{
														OFFSET -0 0 0
													}
												}
											}
										}
									}
									JOINT RightHandIndex1
									{
										OFFSET -7.73763 0 3.41549
										CHANNELS 3 Yrotation Xrotation Zrotation
										JOINT RightHandIndex2
										{
											OFFSET -3.5 0 0
											CHANNELS 3 Yrotation Xrotation Zrotation
											JOINT RightHandIndex3
											{
												OFFSET -2.45 0 0
												CHANNELS 3 Yrotation Xrotation Zrotation
												JOINT RightHandIndex4
												{
													OFFSET -1.5225 0 0
													CHANNELS 3 Yrotation Xrotation Zrotation
													End Site
													{
														OFFSET -0 0 0
													}
												}
											}
										}
									}
									JOINT RightHandMiddle1
									{
										OFFSET -8.14217 0 1.11673
										CHANNELS 3 Yrotation Xrotation Zrotation
										JOINT RightHandMiddle2
										{
											OFFSET -4.6 0 0
											CHANNELS 3 Yrotation Xrotation Zrotation
											JOINT RightHandMiddle3
											{
												OFFSET -3.22 0 0
												CHANNELS 3 Yrotation Xrotation Zrotation
												JOINT RightHandMiddle4
												{
													OFFSET -2.001 0 0
													CHANNELS 3 Yrotation Xrotation Zrotation
													End Site
													{
														OFFSET -0 0 0
													}
												}
											}
										}
									}
									JOINT RightHandRing1
									{
										OFFSET -8.24672 0 -1.18204
										CHANNELS 3 Yrotation Xrotation Zrotation
										JOINT RightHandRing2
										{
											OFFSET -3.75 0 0
											CHANNELS 3 Yrotation Xrotation Zrotation
											JOINT RightHandRing3
											{
												OFFSET -2.625 0 0
												CHANNELS 3 Yrotation Xrotation Zrotation
												JOINT RightHandRing4
												{
													OFFSET -1.63125 0 0
													CHANNELS 3 Yrotation Xrotation Zrotation
													End Site
													{
														OFFSET -0 0 0
													}
												}
											}
										}
									}
									JOINT RightHandPinky1
									{
										OFFSET -8.05126 0 -3.4808
										CHANNELS 3 Yrotation Xrotation Zrotation
										JOINT RightHandPinky2
										{
											OFFSET -2.875 0 0
											CHANNELS 3 Yrotation Xrotation Zrotation
											JOINT RightHandPinky3
											{
												OFFSET -2.0125 0 0
												CHANNELS 3 Yrotation Xrotation Zrotation
												JOINT RightHandPinky4
												{
													OFFSET -1.25062 0 0
													CHANNELS 3 Yrotation Xrotation Zrotation
													End Site
													{
														OFFSET -0 0 0
													}
												}
											}
										}
									}
								}
							}
						}
					}
				}
			}
		}
	}
	JOINT LeftUpLeg
	{
		OFFSET 10.2984 -3.43279 3
		CHANNELS 3 Yrotation Xrotation Zrotation
		JOINT LeftLeg
		{
			OFFSET -0 -43.8423 2.40295
			CHANNELS 3 Yrotation Xrotation Zrotation
			JOINT LeftFoot
			{
				OFFSET -0 -38.9759 -2.40295
				CHANNELS 3 Yrotation Xrotation Zrotation
				JOINT LeftToeBase
				{
					OFFSET -0 -9.09429 9.70353
					CHANNELS 3 Yrotation Xrotation Zrotation
					End Site
					{
						OFFSET 0 0 5
					}
				}
			}
		}
	}
	JOINT RightUpLeg
	{
		OFFSET -10.2984 -3.43279 3
		CHANNELS 3 Yrotation Xrotation Zrotation
		JOINT RightLeg
		{
			OFFSET -0 -43.8423 2.40295
			CHANNELS 3 Yrotation Xrotation Zrotation
			JOINT RightFoot
			{
				OFFSET -0 -38.9759 -2.40295
				CHANNELS 3 Yrotation Xrotation Zrotation
				JOINT RightToeBase
				{
					OFFSET -0 -9.09429 9.70353
					CHANNELS 3 Yrotation Xrotation Zrotation
					End Site
					{
						OFFSET 0 0 5
					}
				}
			}
		}
	}
}
MOTION
Frames: 4
Frame Time: 0.0047619
6.172697 94.945050 -5.699267 -43.194001 15.064142 3.551085 2.777460 1.082155 4.694453 2.792198 0.729013 3.041627 1.529574 0.565781 1.298580 1.191341 0.352962 0.271291 45.839981 7.126659 -18.972579 20.201507 -3.188474 -5.246461 19.245791 4.010054 5.884845 -48.228373 17.140720 -71.773195 -17.450914 18.649791 7.620080 60.654854 -46.725351 -10.609669 21.287725 5.522700 -2.100122 24.481038 6.404339 -2.233658 -76.956329 -6.320599 18.736794 -0.000000 0.000002 -1.897129 -0.000000 0.000002 -1.897129 0.000014 0.000002 -1.517703 -0.000017 0.000000 -0.758851 0.000014 -0.000001 -3.551587 0.000014 -0.000001 -3.551587 0.000000 -0.000001 -2.841272 -0.000004 -0.000003 -1.420634 0.000014 0.000005 -2.316567 0.000014 0.000005 -2.316567 -0.000010 -0.000001 -1.853250 0.000010 -0.000005 -0.926622 0.000007 0.000005 2.660326 0.000007 0.000005 2.660326 -0.000007 0.000003 2.128256 -0.000003 -0.000002 1.064131 -172.617233 -0.005808 -179.909974 -0.143651 -4.445790 -18.889896 11.464491 -5.018293 -3.561921 56.980534 -6.426785 9.029950 -140.235529 -45.072576 106.493473 -1.957140 5.338909 -14.353908 -2.365838 6.091452 -16.533334 -53.309758 11.814151 13.029371 -0.000008 -0.000004 -12.499992 -0.000008 -0.000004 -12.499992 0.000004 0.000003 -10.000008 0.000002 -0.000000 -5.000002 -0.000023 -0.000065 0.762650 -0.000023 -0.000065 0.762650 -0.000016 -0.000051 0.610124 -0.000009 -0.000024 0.305063 0.000017 0.000059 -2.925746 0.000017 0.000059 -2.925746 0.000018 0.000055 -2.340589 0.000008 0.000024 -1.170295 -0.000001 0.000004 29.920156 -0.000001 0.000004 29.920156 -0.000005 0.000010 23.936125 -0.000002 0.000004 11.968072 21.287725 5.522700 -2.100122 16.503379 -11.811604 -20.557591 0.000000 0.641294 0.000000 18.962424 1.276678 8.176750 0.000000 -10.648329 0.000000 -166.721056 -80.336495 144.175212 0.000000 89.029697 0.000000 -60.410281 -17.193162 -5.689858 0.000000 -14.341117 0.000000
6.163894 94.946997 -5.716058 -43.191657 15.068987 3.554805 2.773588 1.073625 4.696297 2.787711 0.724262 3.038362 1.529075 0.562136 1.297329 1.180814 0.374299 0.256336 45.850558 7.108142 -18.968370 20.202871 -3.203362 -5.267041 19.258963 4.032758 5.909234 -48.291587 17.107980 -71.797997 -17.406949 18.589236 7.651985 60.640548 -46.736771 -10.600823 21.287725 5.522700 -2.100122 24.481038 6.404339 -2.233658 -76.956329 -6.320599 18.736794 -0.000000 0.000002 -1.897129 -0.000000 0.000002 -1.897129 0.000014 0.000002 -1.517703 -0.000017 0.000000 -0.758851 0.000014 -0.000001 -3.551587 0.000014 -0.000001 -3.551587 0.000000 -0.000001 -2.841272 -0.000004 -0.000003 -1.420634 0.000014 0.000005 -2.316567 0.000014 0.000005 -2.316567 -0.000010 -0.000001 -1.853250 0.000010 -0.000005 -0.926622 0.000007 0.000005 2.660326 0.000007 0.000005 2.660326 -0.000007 0.000003 2.128256 -0.000003 -0.000002 1.064131 -172.617233 -0.005808 -179.909974 -0.133139 -4.445284 -18.879277 11.432329 -5.058885 -3.536458 56.976976 -6.446138 9.067942 -140.187044 -45.129608 106.465202 -1.957140 5.338909 -14.353908 -2.365838 6.091452 -16.533334 -53.309758 11.814151 13.029371 -0.000008 -0.000004 -12.499992 -0.000008 -0.000004 -12.499992 0.000004 0.000003 -10.000008 0.000002 -0.000000 -5.000002 -0.000023 -0.000065 0.762650 -0.000023 -0.000065 0.762650 -0.000016 -0.000051 0.610124 -0.000009 -0.000024 0.305063 0.000017 0.000059 -2.925746 0.000017 0.000059 -2.925746 0.000018 0.000055 -2.340589 0.000008 0.000024 -1.170295 -0.000001 0.000004 29.920156 -0.000001 0.000004 29.920156 -0.000005 0.000010 23.936125 -0.000002 0.000004 11.968072 21.287725 5.522700 -2.100122 16.509506 -11.815020 -20.552094 0.000000 0.629758 0.000000 18.940662 1.286783 8.189819 0.000000 -10.675953 0.000000 -166.690945 -80.360585 144.136598 0.000000 89.024872 0.000000 -60.412664 -17.189416 -5.722845 0.000000 -14.357378 0.000000
6.154356 94.949530 -5.732873 -43.198564 15.071525 3.559666 2.769518 1.067612 4.703399 2.778246 0.731060 3.034857 1.529193 0.578781 1.283148 1.198737 0.350674 0.251041 45.834809 7.118250 -18.970157 20.192040 -3.237223 -5.283219 19.265041 4.030564 5.926563 -48.357219 17.111987 -71.834909 -17.389394 18.532698 7.658464 60.432288 -46.578189 -10.335735 21.260695 5.585231 -2.101222 24.449740 6.475982 -2.233148 -76.780521 -6.297116 18.764657 0.000044 0.000023 -1.978207 0.000044 0.000023 -1.978207 0.000044 0.000014 -1.582570 0.000031 0.000010 -0.791281 0.000064 0.000026 -3.654106 0.000064 0.000026 -3.654106 0.000041 0.000017 -2.923288 0.000017 0.000011 -1.461643 0.000061 0.000025 -2.418482 0.000061 0.000025 -2.418482 0.000037 0.000023 -1.934787 0.000020 0.000007 -0.967393 0.000031 0.000013 2.619203 0.000031 0.000013 2.619203 0.000014 0.000010 2.095367 0.000004 0.000001 1.047673 -172.617255 -0.005808 -179.909974 -0.147974 -4.451244 -18.876822 11.418309 -5.098279 -3.500505 56.968628 -6.433981 9.104163 -140.303938 -45.075788 106.661431 -1.937194 5.395673 -14.405606 -2.344589 6.156895 -16.593072 -53.315807 11.825755 13.012414 -0.000003 -0.000007 -12.500000 -0.000003 -0.000007 -12.500000 -0.000001 0.000007 -9.999992 0.000004 0.000003 -5.000013 -0.000048 -0.000003 0.655537 -0.000048 -0.000003 0.655537 -0.000031 0.000000 0.524428 -0.000020 0.000000 0.262213 0.000022 0.000004 -2.870568 0.000022 0.000004 -2.870568 0.000024 0.000011 -2.296469 0.000005 -0.000003 -1.148228 0.000030 -0.000019 30.012625 0.000030 -0.000019 30.012625 0.000032 0.000018 24.010088 0.000011 0.000004 12.005051 21.260695 5.585231 -2.101222 16.511281 -11.819789 -20.545854 0.000000 0.621902 0.000000 18.948867 1.283441 8.148440 0.000000 -10.645555 0.000000 -166.727012 -80.388427 144.175929 0.000000 89.030963 0.000000 -60.410340 -17.165145 -5.696076 0.000000 -14.388305 0.000000
6.143126 94.952570 -5.749459 -43.202969 15.075261 3.562128 2.764794 1.057051 4.695951 2.772463 0.727958 3.027930 1.538313 0.571621 1.286300 1.194709 0.376457 0.250159 45.830521 7.100141 -18.948864 20.186866 -3.238851 -5.335655 19.264707 4.036476 5.955355 -48.392701 17.064152 -71.877912 -17.337836 18.537975 7.686008 60.452655 -46.602951 -10.367435 21.260695 5.585231 -2.101222 24.449740 6.475982 -2.233148 -76.780521 -6.297116 18.764657 0.000044 0.000023 -1.978207 0.000044 0.000023 -1.978207 0.000044 0.000014 -1.582570 0.000031 0.000010 -0.791281 0.000064 0.000026 -3.654106 0.000064 0.000026 -3.654106 0.000041 0.000017 -2.923288 0.000017 0.000011 -1.461643 0.000061 0.000025 -2.418482 0.000061 0.000025 -2.418482 0.000037 0.000023 -1.934787 0.000020 0.000007 -0.967393 0.000031 0.000013 2.619203 0.000031 0.000013 2.619203 0.000014 0.000010 2.095367 0.000004 0.000001 1.047673 -172.617255 -0.005808 -179.909974 -0.151467 -4.459426 -18.864296 11.411301 -5.116204 -3.472869 56.941188 -6.429254 9.115766 -140.247790 -45.108899 106.640894 -1.937194 5.395673 -14.405606 -2.344589 6.156895 -16.593072 -53.315807 11.825755 13.012414 -0.000003 -0.000007 -12.500000 -0.000003 -0.000007 -12.500000 -0.000001 0.000007 -9.999992 0.000004 0.000003 -5.000013 -0.000048 -0.000003 0.655537 -0.000048 -0.000003 0.655537 -0.000031 0.000000 0.524428 -0.000020 0.000000 0.262213 0.000022 0.000004 -2.870568 0.000022 0.000004 -2.870568 0.000024 0.000011 -2.296469 0.000005 -0.000003 -1.148228 0.000030 -0.000019 30.012625 0.000030 -0.000019 30.012625 0.000032 0.000018 24.010088 0.000011 0.000004 12.005051 21.260695 5.585231 -2.101222 16.507068 -11.827553 -20.539001 0.000000 0.609607 0.000000 18.965955 1.316346 8.173787 0.000000 -10.666672 0.000000 -166.748577 -80.421654 144.201573 0.000000 89.038222 0.000000 -60.411349 -17.148013 -5.659891 0.000000 -14.395517 0.000000
